<svg width="1876" height="605" viewBox="0 0 1876 605" fill="none" xmlns="http://www.w3.org/2000/svg">
<g opacity="0.12" clip-path="url(#clip0_2672_488)">
<path d="M1755.08 363C1688.15 363 1634 417.147 1634 484.083C1634 550.853 1688.15 605.166 1755.08 605.166C1821.85 605.166 1876.17 551.019 1876.17 484.083C1876 417.147 1821.85 363 1755.08 363ZM1755.08 597.36C1692.47 597.36 1641.81 546.701 1641.81 484.083C1641.81 421.465 1692.47 370.806 1755.08 370.806C1817.7 370.806 1868.36 421.465 1868.36 484.083C1868.36 546.535 1817.53 597.36 1755.08 597.36Z" fill="#FFCF2D"/>
<path d="M1755.08 389.076C1702.76 389.076 1660.24 431.596 1660.24 483.916C1660.24 536.236 1702.76 578.756 1755.08 578.756C1807.4 578.756 1849.92 536.402 1849.92 484.082C1849.92 431.596 1807.4 389.076 1755.08 389.076ZM1755.08 564.306C1710.74 564.306 1674.69 528.264 1674.69 483.916C1674.69 439.569 1710.74 403.526 1755.08 403.526C1799.43 403.526 1835.47 439.569 1835.47 483.916C1835.47 528.264 1799.43 564.306 1755.08 564.306Z" fill="#FFCF2D"/>
</g>
<path d="M3.88043 33.7043C3.88043 34.9762 3.04891 35.9301 1.94022 35.9301C0.831521 35.9301 0 34.9762 0 33.7043C0 32.4324 0.831521 31.4785 1.94022 31.4785C3.04891 31.4785 3.88043 32.5384 3.88043 33.7043Z" fill="#FFCF2D"/>
<path d="M20.4185 33.7042C20.4185 34.9761 19.587 35.9299 18.4783 35.9299C17.3696 35.9299 16.5381 34.9761 16.5381 33.7042C16.5381 32.4324 17.3696 31.4785 18.4783 31.4785C19.4946 31.4785 20.4185 32.5384 20.4185 33.7042Z" fill="#FFCF2D"/>
<path d="M36.8638 33.7043C36.8638 34.9762 36.0323 35.9301 34.9236 35.9301C33.8149 35.9301 32.9834 34.9762 32.9834 33.7043C32.9834 32.4324 33.8149 31.4785 34.9236 31.4785C36.0323 31.4785 36.8638 32.5384 36.8638 33.7043Z" fill="#FFCF2D"/>
<path d="M53.4019 33.7043C53.4019 34.9762 52.5704 35.9301 51.4617 35.9301C50.353 35.9301 49.5215 34.9762 49.5215 33.7043C49.5215 32.4324 50.353 31.4785 51.4617 31.4785C52.5704 31.4785 53.4019 32.5384 53.4019 33.7043Z" fill="#FFCF2D"/>
<path d="M69.94 33.7043C69.94 34.9762 69.1085 35.9301 67.9998 35.9301C66.8911 35.9301 66.0596 34.9762 66.0596 33.7043C66.0596 32.4324 66.8911 31.4785 67.9998 31.4785C69.0161 31.4785 69.94 32.5384 69.94 33.7043Z" fill="#FFCF2D"/>
<path d="M86.4781 33.7043C86.4781 34.9762 85.6466 35.9301 84.5379 35.9301C83.4292 35.9301 82.5977 34.9762 82.5977 33.7043C82.5977 32.4324 83.4292 31.4785 84.5379 31.4785C85.6466 31.4785 86.4781 32.5384 86.4781 33.7043Z" fill="#FFCF2D"/>
<path d="M102.924 33.7043C102.924 34.9762 102.093 35.9301 100.984 35.9301C99.8755 35.9301 99.0439 34.9762 99.0439 33.7043C99.0439 32.4324 99.8755 31.4785 100.984 31.4785C102.093 31.4785 102.924 32.5384 102.924 33.7043Z" fill="#FFCF2D"/>
<path d="M119.462 33.7043C119.462 34.9762 118.631 35.9301 117.522 35.9301C116.414 35.9301 115.582 34.9762 115.582 33.7043C115.582 32.4324 116.414 31.4785 117.522 31.4785C118.631 31.4785 119.462 32.5384 119.462 33.7043Z" fill="#FFCF2D"/>
<path d="M136.001 33.7042C136.001 34.9761 135.169 35.9299 134.06 35.9299C132.952 35.9299 132.12 34.9761 132.12 33.7042C132.12 32.4324 132.952 31.4785 134.06 31.4785C135.077 31.4785 136.001 32.5384 136.001 33.7042Z" fill="#FFCF2D"/>
<path d="M3.88043 49.4974C3.88043 50.7693 3.04891 51.7233 1.94022 51.7233C0.831521 51.7233 0 50.7693 0 49.4974C0 48.2254 0.831521 47.2715 1.94022 47.2715C3.04891 47.2715 3.88043 48.2254 3.88043 49.4974Z" fill="#FFCF2D"/>
<path d="M20.4185 49.4973C20.4185 50.7692 19.587 51.7231 18.4783 51.7231C17.3696 51.7231 16.5381 50.7692 16.5381 49.4973C16.5381 48.2254 17.3696 47.2715 18.4783 47.2715C19.4946 47.2715 20.4185 48.2254 20.4185 49.4973Z" fill="#FFCF2D"/>
<path d="M36.8638 49.4974C36.8638 50.7693 36.0323 51.7233 34.9236 51.7233C33.8149 51.7233 32.9834 50.7693 32.9834 49.4974C32.9834 48.2254 33.8149 47.2715 34.9236 47.2715C36.0323 47.2715 36.8638 48.2254 36.8638 49.4974Z" fill="#FFCF2D"/>
<path d="M53.4019 49.4974C53.4019 50.7693 52.5704 51.7233 51.4617 51.7233C50.353 51.7233 49.5215 50.7693 49.5215 49.4974C49.5215 48.2254 50.353 47.2715 51.4617 47.2715C52.5704 47.2715 53.4019 48.2254 53.4019 49.4974Z" fill="#FFCF2D"/>
<path d="M69.94 49.4974C69.94 50.7693 69.1085 51.7233 67.9998 51.7233C66.8911 51.7233 66.0596 50.7693 66.0596 49.4974C66.0596 48.2254 66.8911 47.2715 67.9998 47.2715C69.0161 47.2715 69.94 48.2254 69.94 49.4974Z" fill="#FFCF2D"/>
<path d="M86.4781 49.4974C86.4781 50.7693 85.6466 51.7233 84.5379 51.7233C83.4292 51.7233 82.5977 50.7693 82.5977 49.4974C82.5977 48.2254 83.4292 47.2715 84.5379 47.2715C85.6466 47.2715 86.4781 48.2254 86.4781 49.4974Z" fill="#FFCF2D"/>
<path d="M102.924 49.4974C102.924 50.7693 102.093 51.7233 100.984 51.7233C99.8755 51.7233 99.0439 50.7693 99.0439 49.4974C99.0439 48.2254 99.8755 47.2715 100.984 47.2715C102.093 47.2715 102.924 48.2254 102.924 49.4974Z" fill="#FFCF2D"/>
<path d="M119.462 49.4974C119.462 50.7693 118.631 51.7233 117.522 51.7233C116.414 51.7233 115.582 50.7693 115.582 49.4974C115.582 48.2254 116.414 47.2715 117.522 47.2715C118.631 47.2715 119.462 48.2254 119.462 49.4974Z" fill="#FFCF2D"/>
<path d="M136.001 49.4973C136.001 50.7692 135.169 51.7231 134.06 51.7231C132.952 51.7231 132.12 50.7692 132.12 49.4973C132.12 48.2254 132.952 47.2715 134.06 47.2715C135.077 47.2715 136.001 48.2254 136.001 49.4973Z" fill="#FFCF2D"/>
<path d="M3.88043 2.22583C3.88043 3.49773 3.04891 4.45166 1.94022 4.45166C0.831521 4.45166 0 3.49773 0 2.22583C0 0.953927 0.831521 0 1.94022 0C3.04891 0 3.88043 0.953927 3.88043 2.22583Z" fill="#FFCF2D"/>
<path d="M20.4185 2.22583C20.4185 3.49773 19.587 4.45166 18.4783 4.45166C17.3696 4.45166 16.5381 3.49773 16.5381 2.22583C16.5381 0.953927 17.3696 0 18.4783 0C19.4946 0 20.4185 0.953927 20.4185 2.22583Z" fill="#FFCF2D"/>
<path d="M36.8638 2.22583C36.8638 3.49773 36.0323 4.45166 34.9236 4.45166C33.8149 4.45166 32.9834 3.49773 32.9834 2.22583C32.9834 0.953927 33.9073 0 34.9236 0C36.0323 0 36.8638 0.953927 36.8638 2.22583Z" fill="#FFCF2D"/>
<path d="M53.4019 2.22583C53.4019 3.49773 52.5704 4.45166 51.4617 4.45166C50.353 4.45166 49.5215 3.49773 49.5215 2.22583C49.5215 0.953927 50.4454 0 51.4617 0C52.478 0 53.4019 0.953927 53.4019 2.22583Z" fill="#FFCF2D"/>
<path d="M69.94 2.22583C69.94 3.49773 69.1085 4.45166 67.9998 4.45166C66.8911 4.45166 66.0596 3.49773 66.0596 2.22583C66.0596 0.953927 66.8911 0 67.9998 0C69.0161 0 69.94 0.953927 69.94 2.22583Z" fill="#FFCF2D"/>
<path d="M86.4781 2.22583C86.4781 3.49773 85.6466 4.45166 84.5379 4.45166C83.4292 4.45166 82.5977 3.49773 82.5977 2.22583C82.5977 0.953927 83.4292 0 84.5379 0C85.6466 0 86.4781 0.953927 86.4781 2.22583Z" fill="#FFCF2D"/>
<path d="M102.924 2.22577C102.924 3.49764 102.093 4.45154 100.984 4.45154C99.8755 4.45154 99.0439 3.49764 99.0439 2.22577C99.0439 0.953901 99.8755 0 100.984 0C102.093 0 102.924 0.953901 102.924 2.22577Z" fill="#FFCF2D"/>
<path d="M119.463 2.22583C119.463 3.49773 118.631 4.45166 117.522 4.45166C116.414 4.45166 115.582 3.49773 115.582 2.22583C115.582 0.953927 116.414 0 117.522 0C118.631 0 119.463 0.953927 119.463 2.22583Z" fill="#FFCF2D"/>
<path d="M136.001 2.22583C136.001 3.49773 135.169 4.45166 134.06 4.45166C132.952 4.45166 132.12 3.49773 132.12 2.22583C132.12 0.953927 132.952 0 134.06 0C135.077 0 136.001 0.953927 136.001 2.22583Z" fill="#FFCF2D"/>
<path d="M3.88045 18.0189C3.88045 19.2908 3.04892 20.2448 1.94022 20.2448C0.831524 20.2448 0 19.1848 0 18.0189C0 16.7469 0.831524 15.793 1.94022 15.793C3.04892 15.793 3.88045 16.7469 3.88045 18.0189Z" fill="#FFCF2D"/>
<path d="M20.4185 18.0189C20.4185 19.2908 19.587 20.2448 18.4783 20.2448C17.3696 20.2448 16.5381 19.2908 16.5381 18.0189C16.5381 16.7469 17.3696 15.793 18.4783 15.793C19.4946 15.793 20.4185 16.7469 20.4185 18.0189Z" fill="#FFCF2D"/>
<path d="M36.8638 18.0189C36.8638 19.2908 36.0323 20.2448 34.9236 20.2448C33.8149 20.2448 32.9834 19.2908 32.9834 18.0189C32.9834 16.7469 33.8149 15.793 34.9236 15.793C36.0323 15.793 36.8638 16.7469 36.8638 18.0189Z" fill="#FFCF2D"/>
<path d="M53.4019 18.0188C53.4019 19.2907 52.5704 20.2446 51.4617 20.2446C50.353 20.2446 49.5215 19.2907 49.5215 18.0188C49.5215 16.7469 50.353 15.793 51.4617 15.793C52.5704 15.793 53.4019 16.7469 53.4019 18.0188Z" fill="#FFCF2D"/>
<path d="M69.94 18.0189C69.94 19.2908 69.1085 20.2448 67.9998 20.2448C66.8911 20.2448 66.0596 19.2908 66.0596 18.0189C66.0596 16.7469 66.8911 15.793 67.9998 15.793C69.0161 15.793 69.94 16.7469 69.94 18.0189Z" fill="#FFCF2D"/>
<path d="M86.4781 18.0189C86.4781 19.2908 85.6466 20.2448 84.5379 20.2448C83.4292 20.2448 82.5977 19.2908 82.5977 18.0189C82.5977 16.7469 83.4292 15.793 84.5379 15.793C85.6466 15.793 86.4781 16.7469 86.4781 18.0189Z" fill="#FFCF2D"/>
<path d="M102.924 18.0189C102.924 19.2908 102.093 20.2448 100.984 20.2448C99.8755 20.2448 99.0439 19.2908 99.0439 18.0189C99.0439 16.7469 99.8755 15.793 100.984 15.793C102.093 15.793 102.924 16.7469 102.924 18.0189Z" fill="#FFCF2D"/>
<path d="M119.462 18.0189C119.462 19.2908 118.631 20.2448 117.522 20.2448C116.414 20.2448 115.582 19.2908 115.582 18.0189C115.582 16.7469 116.414 15.793 117.522 15.793C118.631 15.793 119.462 16.7469 119.462 18.0189Z" fill="#FFCF2D"/>
<path d="M136.001 18.0189C136.001 19.2908 135.169 20.2448 134.06 20.2448C132.952 20.2448 132.12 19.2908 132.12 18.0189C132.12 16.7469 132.952 15.793 134.06 15.793C135.077 15.793 136.001 16.7469 136.001 18.0189Z" fill="#FFCF2D"/>
<path d="M3.88043 65.1848C3.88043 66.4566 3.04891 67.4105 1.94022 67.4105C0.831521 67.4105 0 66.4566 0 65.1848C0 63.9129 0.831521 62.959 1.94022 62.959C3.04891 62.959 3.88043 64.0189 3.88043 65.1848Z" fill="#FFCF2D"/>
<path d="M20.4185 65.1847C20.4185 66.4565 19.587 67.4104 18.4783 67.4104C17.3696 67.4104 16.5381 66.4565 16.5381 65.1847C16.5381 63.9129 17.3696 62.959 18.4783 62.959C19.4946 62.959 20.4185 64.0188 20.4185 65.1847Z" fill="#FFCF2D"/>
<path d="M36.8638 65.1848C36.8638 66.4566 36.0323 67.4105 34.9236 67.4105C33.8149 67.4105 32.9834 66.4566 32.9834 65.1848C32.9834 63.9129 33.8149 62.959 34.9236 62.959C36.0323 62.959 36.8638 64.0189 36.8638 65.1848Z" fill="#FFCF2D"/>
<path d="M53.4019 65.1848C53.4019 66.4566 52.5704 67.4105 51.4617 67.4105C50.353 67.4105 49.5215 66.4566 49.5215 65.1848C49.5215 63.9129 50.353 62.959 51.4617 62.959C52.5704 62.959 53.4019 64.0189 53.4019 65.1848Z" fill="#FFCF2D"/>
<path d="M69.94 65.1848C69.94 66.4566 69.1085 67.4105 67.9998 67.4105C66.8911 67.4105 66.0596 66.4566 66.0596 65.1848C66.0596 63.9129 66.8911 62.959 67.9998 62.959C69.0161 62.959 69.94 64.0189 69.94 65.1848Z" fill="#FFCF2D"/>
<path d="M86.4781 65.1848C86.4781 66.4566 85.6466 67.4105 84.5379 67.4105C83.4292 67.4105 82.5977 66.4566 82.5977 65.1848C82.5977 63.9129 83.4292 62.959 84.5379 62.959C85.6466 62.959 86.4781 64.0189 86.4781 65.1848Z" fill="#FFCF2D"/>
<path d="M102.924 65.1848C102.924 66.4566 102.093 67.4105 100.984 67.4105C99.8755 67.4105 99.0439 66.4566 99.0439 65.1848C99.0439 63.9129 99.8755 62.959 100.984 62.959C102.093 62.959 102.924 64.0189 102.924 65.1848Z" fill="#FFCF2D"/>
<path d="M119.462 65.1848C119.462 66.4566 118.631 67.4105 117.522 67.4105C116.414 67.4105 115.582 66.4566 115.582 65.1848C115.582 63.9129 116.414 62.959 117.522 62.959C118.631 62.959 119.462 64.0189 119.462 65.1848Z" fill="#FFCF2D"/>
<path d="M136.001 65.1847C136.001 66.4565 135.169 67.4104 134.06 67.4104C132.952 67.4104 132.12 66.4565 132.12 65.1847C132.12 63.9129 132.952 62.959 134.06 62.959C135.077 62.959 136.001 64.0188 136.001 65.1847Z" fill="#FFCF2D"/>
<path d="M3.88043 80.9776C3.88043 82.2494 3.04891 83.2032 1.94022 83.2032C0.831521 83.2032 0 82.2494 0 80.9776C0 79.7058 0.831521 78.752 1.94022 78.752C3.04891 78.752 3.88043 79.7058 3.88043 80.9776Z" fill="#FFCF2D"/>
<path d="M20.4185 80.9777C20.4185 82.2495 19.587 83.2034 18.4783 83.2034C17.3696 83.2034 16.5381 82.2495 16.5381 80.9777C16.5381 79.7058 17.3696 78.752 18.4783 78.752C19.4946 78.752 20.4185 79.7058 20.4185 80.9777Z" fill="#FFCF2D"/>
<path d="M36.8638 80.9777C36.8638 82.2495 36.0323 83.2034 34.9236 83.2034C33.8149 83.2034 32.9834 82.2495 32.9834 80.9777C32.9834 79.7058 33.8149 78.752 34.9236 78.752C36.0323 78.752 36.8638 79.7058 36.8638 80.9777Z" fill="#FFCF2D"/>
<path d="M51.4617 83.2034C52.5333 83.2034 53.4019 82.2069 53.4019 80.9777C53.4019 79.7484 52.5333 78.752 51.4617 78.752C50.3902 78.752 49.5215 79.7484 49.5215 80.9777C49.5215 82.2069 50.3902 83.2034 51.4617 83.2034Z" fill="#FFCF2D"/>
<path d="M69.94 80.9777C69.94 82.2495 69.1085 83.2034 67.9998 83.2034C66.8911 83.2034 66.0596 82.2495 66.0596 80.9777C66.0596 79.7058 66.8911 78.752 67.9998 78.752C69.0161 78.752 69.94 79.7058 69.94 80.9777Z" fill="#FFCF2D"/>
<path d="M86.4781 80.9777C86.4781 82.2495 85.6466 83.2034 84.5379 83.2034C83.4292 83.2034 82.5977 82.2495 82.5977 80.9777C82.5977 79.7058 83.4292 78.752 84.5379 78.752C85.6466 78.752 86.4781 79.7058 86.4781 80.9777Z" fill="#FFCF2D"/>
<path d="M102.924 80.9777C102.924 82.2495 102.093 83.2034 100.984 83.2034C99.8755 83.2034 99.0439 82.2495 99.0439 80.9777C99.0439 79.7058 99.8755 78.752 100.984 78.752C102.093 78.752 102.924 79.7058 102.924 80.9777Z" fill="#FFCF2D"/>
<path d="M117.522 83.2032C118.594 83.2032 119.462 82.2068 119.462 80.9776C119.462 79.7484 118.594 78.752 117.522 78.752C116.451 78.752 115.582 79.7484 115.582 80.9776C115.582 82.2068 116.451 83.2032 117.522 83.2032Z" fill="#FFCF2D"/>
<path d="M136.001 80.9777C136.001 82.2495 135.169 83.2034 134.06 83.2034C132.952 83.2034 132.12 82.2495 132.12 80.9777C132.12 79.7058 132.952 78.752 134.06 78.752C135.077 78.752 136.001 79.7058 136.001 80.9777Z" fill="#FFCF2D"/>
<path d="M3.88045 96.7689C3.88045 98.0408 3.04892 98.9948 1.94022 98.9948C0.831524 98.9948 0 98.0408 0 96.7689C0 95.4969 0.831524 94.543 1.94022 94.543C3.04892 94.543 3.88045 95.4969 3.88045 96.7689Z" fill="#FFCF2D"/>
<path d="M20.4185 96.7689C20.4185 98.0408 19.587 98.9948 18.4783 98.9948C17.3696 98.9948 16.5381 98.0408 16.5381 96.7689C16.5381 95.4969 17.3696 94.543 18.4783 94.543C19.4946 94.543 20.4185 95.4969 20.4185 96.7689Z" fill="#FFCF2D"/>
<path d="M36.8638 96.7689C36.8638 98.0408 36.0323 98.9948 34.9236 98.9948C33.8149 98.9948 32.9834 98.0408 32.9834 96.7689C32.9834 95.4969 33.8149 94.543 34.9236 94.543C36.0323 94.543 36.8638 95.4969 36.8638 96.7689Z" fill="#FFCF2D"/>
<path d="M53.4019 96.7689C53.4019 98.0408 52.5704 98.9948 51.4617 98.9948C50.353 98.9948 49.5215 98.0408 49.5215 96.7689C49.5215 95.4969 50.353 94.543 51.4617 94.543C52.5704 94.543 53.4019 95.4969 53.4019 96.7689Z" fill="#FFCF2D"/>
<path d="M69.94 96.7689C69.94 98.0408 69.1085 98.9948 67.9998 98.9948C66.8911 98.9948 66.0596 98.0408 66.0596 96.7689C66.0596 95.4969 66.8911 94.543 67.9998 94.543C69.0161 94.543 69.94 95.4969 69.94 96.7689Z" fill="#FFCF2D"/>
<path d="M86.4781 96.7689C86.4781 98.0408 85.6466 98.9948 84.5379 98.9948C83.4292 98.9948 82.5977 98.0408 82.5977 96.7689C82.5977 95.4969 83.4292 94.543 84.5379 94.543C85.6466 94.543 86.4781 95.4969 86.4781 96.7689Z" fill="#FFCF2D"/>
<path d="M102.924 96.7689C102.924 98.0408 102.093 98.9948 100.984 98.9948C99.8755 98.9948 99.0439 98.0408 99.0439 96.7689C99.0439 95.4969 99.8755 94.543 100.984 94.543C102.093 94.543 102.924 95.4969 102.924 96.7689Z" fill="#FFCF2D"/>
<path d="M119.462 96.7689C119.462 98.0408 118.631 98.9948 117.522 98.9948C116.414 98.9948 115.582 98.0408 115.582 96.7689C115.582 95.4969 116.414 94.543 117.522 94.543C118.631 94.543 119.462 95.4969 119.462 96.7689Z" fill="#FFCF2D"/>
<path d="M136 96.7689C136 98.0408 135.168 98.9948 134.059 98.9948C132.951 98.9948 132.119 98.0408 132.119 96.7689C132.119 95.4969 132.951 94.543 134.059 94.543C135.076 94.543 136 95.4969 136 96.7689Z" fill="#FFCF2D"/>
<path d="M3.88043 112.456C3.88043 113.728 3.04891 114.682 1.94022 114.682C0.831521 114.682 0 113.728 0 112.456C0 111.184 0.831521 110.23 1.94022 110.23C3.04891 110.23 3.88043 111.29 3.88043 112.456Z" fill="#FFCF2D"/>
<path d="M20.4185 112.456C20.4185 113.728 19.587 114.682 18.4783 114.682C17.3696 114.682 16.5381 113.728 16.5381 112.456C16.5381 111.184 17.3696 110.23 18.4783 110.23C19.4946 110.23 20.4185 111.29 20.4185 112.456Z" fill="#FFCF2D"/>
<path d="M36.8638 112.456C36.8638 113.728 36.0323 114.682 34.9236 114.682C33.8149 114.682 32.9834 113.728 32.9834 112.456C32.9834 111.184 33.8149 110.23 34.9236 110.23C36.0323 110.23 36.8638 111.29 36.8638 112.456Z" fill="#FFCF2D"/>
<path d="M53.4019 112.456C53.4019 113.728 52.5704 114.682 51.4617 114.682C50.353 114.682 49.5215 113.728 49.5215 112.456C49.5215 111.184 50.353 110.23 51.4617 110.23C52.5704 110.23 53.4019 111.29 53.4019 112.456Z" fill="#FFCF2D"/>
<path d="M69.94 112.456C69.94 113.728 69.1085 114.682 67.9998 114.682C66.8911 114.682 66.0596 113.728 66.0596 112.456C66.0596 111.184 66.8911 110.23 67.9998 110.23C69.0161 110.23 69.94 111.29 69.94 112.456Z" fill="#FFCF2D"/>
<path d="M86.4781 112.456C86.4781 113.728 85.6465 114.682 84.5379 114.682C83.4292 114.682 82.5977 113.728 82.5977 112.456C82.5977 111.184 83.4292 110.23 84.5379 110.23C85.6465 110.23 86.4781 111.29 86.4781 112.456Z" fill="#FFCF2D"/>
<path d="M102.924 112.456C102.924 113.728 102.093 114.682 100.984 114.682C99.8755 114.682 99.0439 113.728 99.0439 112.456C99.0439 111.184 99.8755 110.23 100.984 110.23C102.093 110.23 102.924 111.29 102.924 112.456Z" fill="#FFCF2D"/>
<path d="M119.462 112.456C119.462 113.728 118.631 114.682 117.522 114.682C116.414 114.682 115.582 113.728 115.582 112.456C115.582 111.184 116.414 110.23 117.522 110.23C118.631 110.23 119.462 111.29 119.462 112.456Z" fill="#FFCF2D"/>
<path d="M136.001 112.456C136.001 113.728 135.169 114.682 134.06 114.682C132.952 114.682 132.12 113.728 132.12 112.456C132.12 111.184 132.952 110.23 134.06 110.23C135.077 110.23 136.001 111.29 136.001 112.456Z" fill="#FFCF2D"/>
<defs>
<clipPath id="clip0_2672_488">
<rect width="242" height="242" fill="white" transform="translate(1634 363)"/>
</clipPath>
</defs>
</svg>
