<svg xmlns="http://www.w3.org/2000/svg" viewBox="0 0 23.69 22.00" data-guides="{&quot;vertical&quot;:[],&quot;horizontal&quot;:[]}"><defs/><path fill="#FF3F3A" stroke="none" fill-opacity="1" stroke-width="1" stroke-opacity="1" id="tSvgaad7a71ac4" title="Path 7" d="M10.53 9.7C8.4633 7 6.3967 4.3 4.33 1.6C3.93 1.2 3.43 1 2.93 1C2.43 1 1.93 1.2 1.53 1.6C0.83 2.4 0.83 3.6 1.53 4.4C3.1633 6.6 4.7967 8.8 6.43 11C4.7967 13.2 3.1633 15.4 1.53 17.6C0.83 18.4 0.83 19.6 1.53 20.4C1.93 20.8 2.43 21 2.93 21C3.43 21 3.93 20.8 4.33 20.4C6.3967 17.7 8.4633 15 10.53 12.3C11.23 11.7 11.23 10.5 10.53 9.7Z" style=""/><path fill="#FF3F3A" stroke="none" fill-opacity="1" stroke-width="1" stroke-opacity="1" id="tSvg1869724ff87" title="Path 8" d="M13.173 9.7C15.2397 7 17.3063 4.3 19.373 1.6C19.773 1.2 20.273 1 20.773 1C21.273 1 21.773 1.2 22.173 1.6C22.873 2.4 22.873 3.6 22.173 4.4C20.5397 6.6 18.9063 8.8 17.273 11C18.9063 13.2 20.5397 15.4 22.173 17.6C22.873 18.4 22.873 19.6 22.173 20.4C21.773 20.8 21.273 21 20.773 21C20.273 21 19.773 20.8 19.373 20.4C17.3063 17.7 15.2397 15 13.173 12.3C12.473 11.7 12.473 10.5 13.173 9.7Z" style=""/></svg>